HIERARCHY
ROOT Hips
{
	OFFSET 0.00000 0.00000 0.00000
	CHANNELS 6 Xposition Yposition Zposition Zrotation Yrotation Xrotation 
	JOINT LHipJoint
	{
		OFFSET 0 0 0
		CHANNELS 3 Zrotation Yrotation Xrotation
		JOINT LeftUpLeg
		{
			OFFSET 1.58895 -1.83665 0.71753
			CHANNELS 3 Zrotation Yrotation Xrotation
			JOINT LeftLeg
			{
				OFFSET 2.50528 -6.88321 0.00000
				CHANNELS 3 Zrotation Yrotation Xrotation
				JOINT LeftFoot
				{
					OFFSET 2.63244 -7.23257 0.00000
					CHANNELS 3 Zrotation Yrotation Xrotation
					JOINT LeftToeBase
					{
						OFFSET 0.23691 -0.65090 1.72750
						CHANNELS 3 Zrotation Yrotation Xrotation
						End Site
						{
							OFFSET 0.00000 -0.00000 0.92561
						}
					}
				}
			}
		}
	}
	JOINT RHipJoint
	{
		OFFSET 0 0 0
		CHANNELS 3 Zrotation Yrotation Xrotation
		JOINT RightUpLeg
		{
			OFFSET -1.51435 -1.83665 0.71753
			CHANNELS 3 Zrotation Yrotation Xrotation
			JOINT RightLeg
			{
				OFFSET -2.54551 -6.99375 0.00000
				CHANNELS 3 Zrotation Yrotation Xrotation
				JOINT RightFoot
				{
					OFFSET -2.66027 -7.30903 0.00000
					CHANNELS 3 Zrotation Yrotation Xrotation
					JOINT RightToeBase
					{
						OFFSET -0.22981 -0.63138 2.03959
						CHANNELS 3 Zrotation Yrotation Xrotation
						End Site
						{
							OFFSET -0.00000 -0.00000 1.07060
						}
					}
				}
			}
		}
	}
	JOINT LowerBack
	{
		OFFSET 0 0 0
		CHANNELS 3 Zrotation Yrotation Xrotation
		JOINT Spine
		{
			OFFSET -0.02651 1.86275 -0.11152
			CHANNELS 3 Zrotation Yrotation Xrotation
			JOINT Spine1
			{
				OFFSET 0.01019 1.86224 0.04087
				CHANNELS 3 Zrotation Yrotation Xrotation
				JOINT Neck
				{
					OFFSET 0 0 0
					CHANNELS 3 Zrotation Yrotation Xrotation
					JOINT Neck1
					{
						OFFSET -0.01926 1.80512 0.08867
						CHANNELS 3 Zrotation Yrotation Xrotation
						JOINT Head
						{
							OFFSET 0.05516 1.76451 -0.38475
							CHANNELS 3 Zrotation Yrotation Xrotation
							End Site
							{
								OFFSET 0.01592 1.82587 -0.14001
							}
						}
					}
				}
				JOINT LeftShoulder
				{
					OFFSET 0 0 0
					CHANNELS 3 Zrotation Yrotation Xrotation
					JOINT LeftArm
					{
						OFFSET 3.47116 1.51376 0.14491
						CHANNELS 3 Zrotation Yrotation Xrotation
						JOINT LeftForeArm
						{
							OFFSET 4.78095 -0.00000 0.00000
							CHANNELS 3 Zrotation Yrotation Xrotation
							JOINT LeftHand
							{
								OFFSET 3.58615 -0.00000 -0.00000
								CHANNELS 3 Zrotation Yrotation Xrotation
								JOINT LeftFingerBase
								{
									OFFSET 0 0 0
									CHANNELS 3 Zrotation Yrotation Xrotation
									JOINT LeftHandIndex1
									{
										OFFSET 0.65981 -0.00000 0.00000
										CHANNELS 3 Zrotation Yrotation Xrotation
										End Site
										{
											OFFSET 0.53196 -0.00000 0.00000
										}
									}
								}
								JOINT LThumb
								{
									OFFSET 0 0 0
									CHANNELS 3 Zrotation Yrotation Xrotation
									End Site
									{
										OFFSET 0.54008 -0.00000 0.54008
									}
								}
							}
						}
					}
				}
				JOINT RightShoulder
				{
					OFFSET 0 0 0
					CHANNELS 3 Zrotation Yrotation Xrotation
					JOINT RightArm
					{
						OFFSET -3.31725 1.61216 0.35156
						CHANNELS 3 Zrotation Yrotation Xrotation
						JOINT RightForeArm
						{
							OFFSET -4.48913 -0.00000 0.00000
							CHANNELS 3 Zrotation Yrotation Xrotation
							JOINT RightHand
							{
								OFFSET -3.70510 -0.00000 0.00000
								CHANNELS 3 Zrotation Yrotation Xrotation
								JOINT RightFingerBase
								{
									OFFSET 0 0 0
									CHANNELS 3 Zrotation Yrotation Xrotation
									JOINT RightHandIndex1
									{
										OFFSET -0.44914 -0.00000 0.00000
										CHANNELS 3 Zrotation Yrotation Xrotation
										End Site
										{
											OFFSET -0.36211 -0.00000 0.00000
										}
									}
								}
								JOINT RThumb
								{
									OFFSET 0 0 0
									CHANNELS 3 Zrotation Yrotation Xrotation
									End Site
									{
										OFFSET -0.36763 -0.00000 0.36763
									}
								}
							}
						}
					}
				}
			}
		}
	}
}
MOTION
Frames: 11
Frame Time: .0083333
-0.7748 18.6652 6.0704 0 0 0 0 0 0 -21 0 0 0 0 0 0 0 0 0 0 0 0 0 0 21 0 0 0 0 0 0 0 0 0 0 0 0 0 0 0 0 0 0 0 0 0 0 -16 0 0 21 0 0 11 0 0 0 -8 0 0 0 0 0 0 0 0 0 0 0 0 0 0 0 0 0 0 0 0 8 0 0 0 0 0 0 0 0 0 0 0 0 0 0 0 0 0
-0.7748 18.6652 6.0704 -3.3881 -3.0760 0.4214 0.0000 0.0000 0.0000 -11.7923 -8.2040 -0.7233 1.4617 7.6409 21.6287 1.6940 5.3416 -26.9971 8.3325 -16.3584 -53.7516 0.0000 0.0000 0.0000 16.6340 -8.4834 6.4654 0.0000 0.0000 -0.0000 -0.5023 -0.0055 -13.3932 -0.1854 2.7730 -7.6475 0.1199 0.9683 0.1681 1.2425 1.2983 -0.4742 1.1951 0.6519 -0.6055 -1.2918 -0.8490 -9.2858 2.2685 -1.3809 18.1260 0.8274 -0.5536 7.0965 0.0000 0.0000 0.0000 -92.1614 9.6000 32.1769 19.8911 -30.5110 -5.4760 -0.0000 -0.0000 12.9711 1.7041 -24.4575 -0.7057 -7.1250 0.0000 -0.0000 -16.8919 6.3643 15.6274 0.0000 0.0000 0.0000 88.4717 -17.0729 30.9880 -23.6353 34.7762 -7.4975 0.0000 0.0000 18.8319 -7.3106 -27.5536 3.3962 7.1250 -0.0000 -0.0000 24.7690 -55.9535 -6.9597
-0.7751 18.6647 6.0711 -3.4003 -3.0765 0.4283 0.0000 0.0000 0.0000 -11.7760 -8.1967 -0.7341 1.4620 7.6419 21.6316 1.6945 5.3422 -27.0002 8.3409 -16.3644 -53.7816 0.0000 0.0000 0.0000 16.6502 -8.4816 6.4601 0.0000 -0.0000 0.0000 -0.5026 -0.0054 -13.3976 -0.1837 2.7609 -7.6137 0.3420 1.0271 0.6003 1.1086 1.3852 -0.7805 0.9209 0.6946 -1.1546 -1.2679 -0.9050 -9.0558 2.3849 -1.4892 18.2973 0.8527 -0.5945 7.1139 0.0000 -0.0000 0.0000 -91.9230 10.0760 32.3776 19.9316 -30.5598 -5.4965 -0.0000 -0.0000 12.9360 1.7137 -24.3939 -0.7080 -7.1250 0.0000 -0.0000 -16.8878 6.4246 15.6027 0.0000 -0.0000 0.0000 88.7398 -17.5625 30.7628 -23.6665 34.8096 -7.5153 0.0000 0.0000 18.9352 -7.3536 -27.5222 3.4128 7.1250 -0.0000 -0.0000 24.7051 -55.9338 -6.9280
-0.7751 18.6646 6.0720 -3.4036 -3.0761 0.4468 0.0000 0.0000 0.0000 -11.7709 -8.1918 -0.7582 1.4634 7.6453 21.6418 1.6947 5.3438 -27.0031 8.3496 -16.3704 -53.8122 0.0000 0.0000 0.0000 16.6540 -8.4782 6.4468 0.0000 0.0000 -0.0000 -0.5017 0.0090 -13.3810 -0.1786 2.7225 -7.5071 0.4190 1.0381 0.7442 1.0600 1.4032 -0.8968 0.8236 0.7028 -1.3516 -1.2585 -0.9184 -8.9916 2.4580 -1.5258 18.3987 0.8721 -0.6050 7.1366 -0.0000 0.0000 0.0000 -91.8385 10.2491 32.4259 19.9527 -30.5853 -5.5073 -0.0000 -0.0000 12.9088 1.7397 -24.3822 -0.7184 -7.1250 0.0000 -0.0000 -16.8725 6.4341 15.5840 -0.0000 0.0000 0.0000 88.8366 -17.7204 30.7038 -23.6471 34.7889 -7.5043 0.0000 0.0000 19.0572 -7.4505 -27.4960 3.4551 7.1250 -0.0000 -0.0000 24.5920 -55.9293 -6.8907
-0.7749 18.6651 6.0727 -3.4107 -3.0717 0.4663 0.0000 0.0000 0.0000 -11.7579 -8.1911 -0.7836 1.4642 7.6473 21.6477 1.6933 5.3381 -26.9897 8.3451 -16.3673 -53.7964 0.0000 0.0000 0.0000 16.6604 -8.4786 6.4328 0.0000 0.0000 -0.0000 -0.5013 0.0283 -13.3682 -0.1679 2.6401 -7.2784 0.4244 1.0231 0.7369 1.0659 1.3834 -0.9039 0.8271 0.6928 -1.3546 -1.2630 -0.9026 -8.9879 2.4887 -1.5097 18.4145 0.8843 -0.5948 7.1409 0.0000 0.0000 0.0000 -91.8638 10.2438 32.3550 19.9553 -30.5885 -5.5086 -0.0000 -0.0000 12.9157 1.7177 -24.4064 -0.7100 -7.1250 0.0000 -0.0000 -16.8850 6.4123 15.6041 0.0000 0.0000 0.0000 88.8160 -17.7132 30.7491 -23.6292 34.7697 -7.4941 0.0000 0.0000 19.1074 -7.5117 -27.4724 3.4810 7.1250 -0.0000 -0.0000 24.5155 -55.9201 -6.8618
-0.7749 18.6647 6.0742 -3.4033 -3.0667 0.4761 0.0000 0.0000 0.0000 -11.7636 -8.1862 -0.7958 1.4647 7.6486 21.6518 1.6912 5.3396 -26.9760 8.3479 -16.3692 -53.8062 0.0000 0.0000 0.0000 16.6520 -8.4821 6.4265 0.0000 -0.0000 0.0000 -0.5040 0.0499 -13.3973 -0.1597 2.5750 -7.0976 0.4149 1.0239 0.7150 1.0603 1.3840 -0.9088 0.8271 0.6932 -1.3474 -1.2270 -0.9057 -8.9453 2.4545 -1.5132 18.3947 0.8669 -0.5975 7.1265 -0.0000 -0.0000 0.0000 -91.8687 10.2513 32.3356 19.9510 -30.5833 -5.5064 -0.0000 -0.0000 12.9748 1.7033 -24.4334 -0.7047 -7.1250 0.0000 -0.0000 -16.8929 6.3875 15.6206 -0.0000 -0.0000 0.0000 88.8263 -17.7622 30.7356 -23.6437 34.7852 -7.5023 0.0000 0.0000 19.1606 -7.5574 -27.4216 3.4964 7.1250 -0.0000 -0.0000 24.4361 -55.8833 -6.8153
-0.7750 18.6636 6.0758 -3.3944 -3.0749 0.4605 0.0000 0.0000 0.0000 -11.7824 -8.1721 -0.7711 1.4652 7.6497 21.6552 1.6902 5.3657 -26.9833 8.3705 -16.3851 -53.8865 0.0000 0.0000 0.0000 16.6392 -8.4801 6.4477 0.0000 0.0000 -0.0000 -0.5064 0.0607 -13.4254 -0.1634 2.6041 -7.1783 0.4035 1.0367 0.7237 1.0543 1.4009 -0.9101 0.8268 0.7018 -1.3539 -1.1606 -0.9244 -8.9281 2.3681 -1.5336 18.4010 0.8261 -0.6104 7.1248 -0.0000 0.0000 0.0000 -91.8492 10.2850 32.4002 19.9672 -30.6028 -5.5146 -0.0000 -0.0000 13.0045 1.7535 -24.4557 -0.7261 -7.1250 0.0000 -0.0000 -16.8626 6.3628 15.5981 -0.0000 0.0000 0.0000 88.8592 -17.8174 30.6949 -23.6716 34.8151 -7.5182 0.0000 0.0000 19.1817 -7.6025 -27.4330 3.5188 7.1250 -0.0000 -0.0000 24.3995 -55.9025 -6.8158
-0.7752 18.6632 6.0758 -3.3927 -3.0800 0.4511 0.0000 0.0000 0.0000 -11.7874 -8.1763 -0.7554 1.4650 7.6493 21.6537 1.6924 5.3667 -26.9996 8.3750 -16.3882 -53.9023 0.0000 0.0000 0.0000 16.6371 -8.4775 6.4570 0.0000 0.0000 -0.0000 -0.5056 0.0528 -13.4168 -0.1708 2.6622 -7.3395 0.3931 1.0368 0.7499 1.0611 1.4013 -0.8992 0.8391 0.7021 -1.3579 -1.1211 -0.9238 -8.9909 2.3103 -1.5287 18.4324 0.8011 -0.6097 7.1454 0.0000 0.0000 0.0000 -91.8612 10.2671 32.4123 19.9738 -30.6108 -5.5180 -0.0000 -0.0000 13.0255 1.7676 -24.4699 -0.7323 -7.1250 0.0000 -0.0000 -16.8539 6.3483 15.5942 0.0000 0.0000 0.0000 88.8629 -17.8004 30.7169 -23.6869 34.8314 -7.5270 0.0000 0.0000 19.1147 -7.6494 -27.5842 3.5587 7.1250 -0.0000 -0.0000 24.4571 -56.0486 -6.9219
-0.7752 18.6637 6.0761 -3.3945 -3.0657 0.4734 0.0000 0.0000 0.0000 -11.7786 -8.1982 -0.7774 1.4643 7.6475 21.6483 1.6950 5.3377 -27.0017 8.3567 -16.3754 -53.8376 0.0000 0.0000 0.0000 16.6429 -8.4849 6.4313 0.0000 -0.0000 0.0000 -0.5058 0.0577 -13.4177 -0.1725 2.6754 -7.3763 0.3926 1.0194 0.7610 1.0664 1.3782 -0.8996 0.8450 0.6906 -1.3644 -1.1048 -0.9144 -9.0585 2.2965 -1.5160 18.4558 0.7948 -0.6031 7.1645 -0.0000 -0.0000 0.0000 -91.8930 10.2342 32.3414 19.9574 -30.5910 -5.5097 -0.0000 -0.0000 13.0800 1.7468 -24.4990 -0.7245 -7.1250 0.0000 -0.0000 -16.8655 6.3218 15.6150 -0.0000 -0.0000 0.0000 88.8570 -17.7701 30.7704 -23.6799 34.8240 -7.5230 0.0000 0.0000 19.0661 -7.7083 -27.6895 3.5989 7.1250 -0.0000 -0.0000 24.4721 -56.1556 -6.9915
-0.7752 18.6648 6.0777 -3.3891 -3.0463 0.5001 0.0000 0.0000 0.0000 -11.7794 -8.2156 -0.7982 1.4639 7.6466 21.6457 1.6987 5.2993 -27.0065 8.3455 -16.3676 -53.7977 0.0000 0.0000 0.0000 16.6393 -8.4984 6.4076 0.0000 0.0000 -0.0000 -0.5064 0.0579 -13.4262 -0.1762 2.7042 -7.4563 0.3906 1.0066 0.7653 1.0579 1.3613 -0.9255 0.8375 0.6821 -1.3929 -1.1008 -0.9126 -9.0649 2.3122 -1.5179 18.4858 0.7991 -0.6022 7.1755 0.0000 0.0000 0.0000 -91.8917 10.2759 32.3086 19.9669 -30.6025 -5.5145 -0.0000 -0.0000 13.0792 1.6986 -24.5142 -0.7050 -7.1250 0.0000 -0.0000 -16.8938 6.3106 15.6476 0.0000 0.0000 0.0000 88.8675 -17.8024 30.8173 -23.6875 34.8320 -7.5273 0.0000 0.0000 19.0200 -7.7480 -27.6853 3.6171 7.1250 -0.0000 -0.0000 24.4300 -56.1597 -6.9809
-0.7756 18.6658 6.0787 -3.3748 -3.0454 0.5162 0.0000 0.0000 0.0000 -11.7923 -8.2154 -0.8091 1.4637 7.6460 21.6440 1.7008 5.2834 -27.0123 8.3426 -16.3655 -53.7874 0.0000 0.0000 0.0000 16.6255 -8.4964 6.3965 0.0000 0.0000 0.0000 -0.5062 0.0506 -13.4256 -0.1747 2.6928 -7.4246 0.3858 1.0167 0.7814 1.0348 1.3750 -0.9617 0.8156 0.6890 -1.4388 -1.1022 -0.9156 -9.0260 2.3654 -1.5330 18.5244 0.8155 -0.6049 7.1818 -0.0000 -0.0000 0.0000 -91.8581 10.3351 32.3310 19.9660 -30.6014 -5.5141 -0.0000 -0.0000 13.0635 1.6462 -24.5161 -0.6833 -7.1250 0.0000 -0.0000 -16.9249 6.3122 15.6786 -0.0000 -0.0000 0.0000 88.9137 -17.8890 30.8151 -23.7219 34.8688 -7.5470 0.0000 0.0000 18.9910 -7.7318 -27.6718 3.6079 7.1250 -0.0000 -0.0000 24.4366 -56.1443 -6.9736
